<?xml version="1.0" standalone="no"?><!DOCTYPE svg PUBLIC "-//W3C//DTD SVG 1.1//EN" "http://www.w3.org/Graphics/SVG/1.1/DTD/svg11.dtd"><svg t="1580695518180" class="icon" viewBox="0 0 1024 1024" version="1.1" xmlns="http://www.w3.org/2000/svg" p-id="4187" xmlns:xlink="http://www.w3.org/1999/xlink" width="200" height="200"><defs><style type="text/css"></style></defs><path d="M962.56 416.426667c1.706667-4.437333 2.048-8.874667 1.365333-13.653334L926.549333 120.661333c-1.024-7.168-4.096-13.312-9.216-18.090666-5.12-5.12-11.605333-7.850667-18.773333-8.533334L595.968 68.266667H593.237333c-4.437333 0-8.533333 0.682667-12.629333 2.730666-2.389333 1.024-4.778667 2.730667-6.826667 4.437334l-1.706666 1.706666c-0.341333 0-0.341333 0-0.341334 0.341334-0.341333 0-0.341333 0-0.341333 0.341333l-0.682667 0.682667L60.928 593.749333c0 0.341333-0.341333 0.341333-0.682667 0.682667l-0.341333 0.341333c-2.389333 2.389333-4.437333 5.12-5.802667 7.850667l-1.706666 5.12c-0.682667 2.048-1.024 4.437333-1.365334 6.826667-0.341333 2.730667 0 5.12 0.682667 7.509333l1.365333 5.461333c1.365333 2.730667 2.730667 5.461333 4.778667 7.850667 0.341333 0.682667 1.024 1.365333 1.706667 1.706667l0.682666 1.024c2.048 2.048 4.437333 3.754667 6.826667 5.12 3.413333 2.048 7.168 3.072 11.605333 3.413333l266.752 28.672 33.962667 265.728c0.682667 7.850667 4.437333 14.336 10.581333 19.797333 6.144 5.12 13.312 7.509333 21.162667 7.168 8.192-0.341333 14.677333-3.413333 20.48-9.216L955.392 428.373333c3.072-3.413333 5.802667-7.168 7.168-11.946666zM868.693333 153.088L900.949333 395.946667 432.298667 870.741333l-28.672-226.986666c-1.024-6.826667-4.096-12.970667-9.216-18.090667-5.12-4.778667-11.264-7.850667-18.090667-8.533333L148.821333 592.384 605.184 130.901333l263.509333 22.186667z" p-id="4188"></path><path d="M572.928 323.242667c0 33.621333 11.605333 61.952 35.669333 85.845333 23.552 23.552 52.053333 35.328 85.504 35.328s62.293333-11.605333 85.845334-35.328c23.552-23.893333 35.669333-52.394667 35.669333-85.845333s-11.946667-62.293333-35.669333-85.845334c-23.552-23.552-52.394667-35.669333-85.845334-35.669333s-61.952 11.946667-85.504 35.669333c-23.893333 23.552-35.669333 52.394667-35.669333 85.845334z m79.189333-41.984c11.605333-11.946667 25.6-17.749333 42.154667-17.749334 16.384 0 30.549333 5.802667 42.496 17.749334 11.605333 11.605333 17.408 25.6 17.408 42.154666s-5.802667 30.549333-17.408 42.154667c-11.946667 11.605333-25.941333 17.408-42.496 17.408-16.384 0-30.549333-5.802667-42.154667-17.408-11.605333-11.605333-17.408-25.6-17.408-42.154667s5.802667-30.549333 17.408-42.154666z" p-id="4189"></path></svg>