<?xml version="1.0" standalone="no"?><!DOCTYPE svg PUBLIC "-//W3C//DTD SVG 1.1//EN" "http://www.w3.org/Graphics/SVG/1.1/DTD/svg11.dtd"><svg t="1580695598666" class="icon" viewBox="0 0 1024 1024" version="1.1" xmlns="http://www.w3.org/2000/svg" p-id="5848" xmlns:xlink="http://www.w3.org/1999/xlink" width="200" height="200"><defs><style type="text/css"></style></defs><path d="M958.419587 688.044291c-6.406076-179.83063-171.966302-315.013161-251.295218-369.638775 31.75408-31.928047 67.652666-75.650027 72.96889-114.326967 3.730055-28.709659-2.097836-53.771129-17.427392-74.606226-15.72354-20.52298-34.711518-30.500495-58.048668-30.500495-30.781912 0-60.914006 20.221096-77.855314 35.591586-19.095428-37.157288-58.867336-76.177045-116.21502-76.177045-64.731045 0.900535-98.920662 50.189457-112.377515 75.946794-16.352891-14.347154-45.906801-35.463669-78.121381-35.463668-21.940299 0-41.306911 10.049148-57.629101 29.947894-16.690591 20.891381-22.840833 47.073402-17.841843 75.43001 5.275291 38.380173 41.373427 81.580253 73.408924 113.155249-79.605217 52.604527-245.124509 183.939319-252.395303 369.782042-3.428172 94.760805 18.634927 167.504562 65.585529 216.256233 56.186199 57.982152 131.493409 64.244961 161.267337 64.244961h439.015759c29.763694 0 105.070904-6.262809 161.390137-64.260311 46.940369-48.746555 68.998351-121.208894 65.570179-215.381282z m-251.673852-494.009773c-2.665787 19.468945-39.643991 61.75314-73.900125 92.616919l-239.895268-0.424684c-34.890601-30.572128-72.64654-72.98424-75.52211-93.445821-2.09272-11.983251 0.803318-15.657023 2.317853-17.575775 0.813551-1.007985 1.499186-1.755019 2.036436-2.287154 7.449878 1.775486 24.386069 12.438635 33.427233 22.252416 11.727417 13.825254 28.295208 21.433748 46.658951 21.433748a41.649728 41.649728 0 0 0 8.98488-0.977284l3.366772-0.583301c20.896497-4.257073 37.628022-18.660511 45.927267-39.531425l0.081867-0.19955c1.795953-4.379873 18.501894-42.795863 52.364043-43.241014 30.623295 0 47.73857 34.675701 50.931375 41.818578 6.186059 19.919213 22.216599 34.962235 43.005646 40.350093 7.142877 2.363903 13.282886 2.363903 15.92309 2.363903 16.352891 0 32.542048-7.178694 45.809584-20.456463 9.27653-10.105431 25.992705-21.106281 34.614301-23.152951 0.173967 0.209784 0.363284 0.440034 0.562834 0.706101 2.38437 3.172338 4.901774 8.345296 3.305371 20.333664z m-317.704532 166.13841l247.263279 0.496317c44.550882 27.517474 242.080088 159.051816 248.10753 330.092 2.635087 73.408924-12.489802 127.717304-44.924399 161.395253-36.527937 37.653605-87.791895 41.721361-108.140908 41.721361h-438.90831c-20.379713 0-71.715305-4.067756-108.120442-41.706011-32.455064-33.693299-47.56972-88.252396-44.939749-162.137171 6.871693-174.831639 190.432379-295.457233 249.662999-329.861749z" fill="" p-id="5849"></path><path d="M625.436666 660.598451h-76.535212v-17.754859h76.535212c20.349013 0 36.896337-16.547324 36.896338-36.896338s-16.547324-36.901454-36.896338-36.901454h-33.483516l45.390017-41.721361a44.356448 44.356448 0 0 0 14.429021-31.094029 44.131315 44.131315 0 0 0-11.799051-31.96898 44.719732 44.719732 0 0 0-32.859281-14.439254 44.284815 44.284815 0 0 0-30.183261 11.834867L510.797582 522.381732 444.690151 461.682626a44.300165 44.300165 0 0 0-30.208844-11.86045 44.699265 44.699265 0 0 0-32.828581 14.408554 44.162015 44.162015 0 0 0-11.829751 31.99968 44.376915 44.376915 0 0 0 14.429021 31.083796l45.390017 41.726478h-31.078679c-20.349013 0-36.901454 16.552441-36.901454 36.901454s16.552441 36.896337 36.901454 36.896337h76.530095v17.754859H398.568451c-20.349013 0-36.901454 16.547324-36.901455 36.896338s16.552441 36.901454 36.901455 36.901454h76.530095v74.350392c0 20.349013 16.552441 36.896337 36.901454 36.896337s36.901454-16.547324 36.901454-36.896337v-74.345276h76.535212c20.349013 0 36.896337-16.552441 36.896338-36.901454s-16.547324-36.896337-36.896338-36.896337z" fill="" p-id="5850"></path></svg>