<?xml version="1.0" standalone="no"?><!DOCTYPE svg PUBLIC "-//W3C//DTD SVG 1.1//EN" "http://www.w3.org/Graphics/SVG/1.1/DTD/svg11.dtd"><svg t="1580695638823" class="icon" viewBox="0 0 1024 1024" version="1.1" xmlns="http://www.w3.org/2000/svg" p-id="7201" xmlns:xlink="http://www.w3.org/1999/xlink" width="200" height="200"><defs><style type="text/css"></style></defs><path d="M1022.101082 31.101806v146.01444c0 21.902166-14.601444 36.50361-36.50361 36.50361s-36.50361-14.601444-36.50361-36.50361v-58.405776L700.869314 374.235741c-14.601444 14.601444-36.50361 14.601444-51.105055 0L496.449097 213.619856l-299.329603 292.028881c-14.601444 14.601444-36.50361 14.601444-51.105054 0s-14.601444-36.50361 0-51.105054l321.231769-321.231769c14.601444-14.601444 36.50361-14.601444 51.105054 0l160.615884 153.315162 219.021661-219.02166h-58.405776c-21.902166 0-36.50361-14.601444-36.50361-36.50361s14.601444-36.50361 43.804332-29.202888h160.615884l7.300722 7.300722c7.300722 0 7.300722 7.300722 7.300722 7.300722v14.601444zM109.51083 585.956679c-21.902166 0-36.50361-14.601444-36.50361-36.50361s14.601444-36.50361 36.50361-36.50361 36.50361 14.601444 36.50361 36.50361-21.902166 36.50361-36.50361 36.50361zM949.093862 914.48917c0 21.902166-14.601444 36.50361-36.50361 36.50361h-73.00722c-21.902166 0-36.50361-14.601444-36.50361-36.50361V483.746571c0-21.902166 14.601444-36.50361 36.50361-36.50361h73.00722c21.902166 0 36.50361 14.601444 36.50361 36.50361v430.742599z m-36.50361-540.253429h-73.00722c-58.405776 0-109.51083 51.105054-109.51083 109.51083v430.742599c0 58.405776 51.105054 109.51083 109.51083 109.51083h73.00722c58.405776 0 109.51083-51.105054 109.51083-109.51083V483.746571c0-58.405776-51.105054-109.51083-109.51083-109.51083zM584.057761 914.48917c0 21.902166-14.601444 36.50361-36.50361 36.50361h-73.00722c-21.902166 0-36.50361-14.601444-36.50361-36.50361V629.761011c0-21.902166 14.601444-36.50361 36.50361-36.50361h73.00722c21.902166 0 36.50361 14.601444 36.50361 36.50361v284.728159z m-36.50361-394.238989h-73.00722c-58.405776 0-109.51083 51.105054-109.51083 109.51083v284.728159c0 58.405776 51.105054 109.51083 109.51083 109.51083h73.00722c58.405776 0 109.51083-51.105054 109.51083-109.51083V629.761011c0-58.405776-51.105054-109.51083-109.51083-109.51083zM219.02166 914.48917c0 21.902166-14.601444 36.50361-36.50361 36.50361h-73.00722c-21.902166 0-36.50361-14.601444-36.50361-36.50361v-138.713719c0-21.902166 14.601444-36.50361 36.50361-36.50361h73.00722c21.902166 0 36.50361 14.601444 36.50361 36.50361v138.713719z m-36.50361-248.224549h-73.00722c-58.405776 0-109.51083 51.105054-109.51083 109.51083v138.713719c0 58.405776 51.105054 109.51083 109.51083 109.51083h73.00722c58.405776 0 109.51083-51.105054 109.510831-109.51083v-138.713719c0-58.405776-51.105054-109.51083-109.510831-109.51083z" p-id="7202"></path></svg>