<?xml version="1.0" standalone="no"?><!DOCTYPE svg PUBLIC "-//W3C//DTD SVG 1.1//EN" "http://www.w3.org/Graphics/SVG/1.1/DTD/svg11.dtd"><svg class="icon" width="200px" height="200.00px" viewBox="0 0 1024 1024" version="1.1" xmlns="http://www.w3.org/2000/svg"><path fill="#333333" d="M888.105 213.435a23.863 23.863 0 0 0-16.803-6.94h-0.074l-68.771 0.222v-33.979c0-7.142-3.202-13.917-8.735-18.414-5.515-4.516-12.77-6.349-19.785-4.905l-262.739 53.337-262.721-46.544a23.745 23.745 0 0 0-19.432 5.182 23.778 23.778 0 0 0-8.514 18.228v28.87l-68.918 0.223c-13.103 0.036-23.726 10.696-23.726 23.8v616.96c0 6.33 2.516 12.399 6.996 16.86a23.864 23.864 0 0 0 16.803 6.938h0.074l719.616-2.22c13.104-0.057 23.727-10.697 23.727-23.8V230.295a23.801 23.801 0 0 0-6.998-16.86zM535.294 814.83V246.414l219.582-44.582v568.434L535.294 814.83zM268.111 207.995l219.583 38.92v568.637l-219.583-38.9V207.995z m-92.626 48.228l45.046-0.149V796.6c0 11.53 8.273 21.393 19.636 23.411l29.926 5.311-94.607 0.277V256.223z m672.018 567.324l-117.704 0.369 53.596-10.882a23.779 23.779 0 0 0 19.062-23.318V254.3l45.047-0.13v569.378zM441.335 297.66l-121.7-22.597c-8.569-1.611-16.712 4.071-18.304 12.566-1.572 8.513 4.054 16.711 12.585 18.284l121.7 22.598c0.963 0.185 1.926 0.259 2.87 0.259 7.42 0 14.008-5.275 15.415-12.825 1.573-8.514-4.035-16.713-12.566-18.286zM441.335 381.18l-121.7-22.596c-8.569-1.628-16.712 4.034-18.304 12.566-1.572 8.513 4.054 16.712 12.585 18.285l121.7 22.596c0.963 0.185 1.926 0.277 2.87 0.277 7.42 0 14.008-5.274 15.415-12.825 1.573-8.53-4.035-16.73-12.566-18.302zM441.335 464.702l-121.7-22.578c-8.569-1.648-16.712 4.052-18.304 12.546-1.572 8.533 4.054 16.731 12.585 18.304l121.7 22.578c0.963 0.186 1.926 0.26 2.87 0.26 7.42 0 14.008-5.275 15.415-12.826 1.573-8.513-4.035-16.711-12.566-18.284zM441.335 548.24l-121.7-22.615c-8.569-1.647-16.712 4.054-18.304 12.565-1.572 8.533 4.054 16.712 12.585 18.303l121.7 22.598c0.963 0.185 1.926 0.259 2.87 0.259 7.42 0 14.008-5.274 15.415-12.824 1.573-8.514-4.035-16.712-12.566-18.286zM441.335 631.743l-121.7-22.577c-8.569-1.684-16.712 4.052-18.304 12.565-1.572 8.513 4.054 16.712 12.585 18.285l121.7 22.577c0.963 0.204 1.926 0.277 2.87 0.277 7.42 0 14.008-5.292 15.415-12.824 1.573-8.531-4.035-16.712-12.566-18.303zM441.335 715.283l-121.7-22.598c-8.569-1.702-16.712 4.034-18.304 12.566-1.572 8.513 4.054 16.711 12.585 18.285l121.7 22.596c0.963 0.186 1.926 0.26 2.87 0.26 7.42 0 14.008-5.256 15.415-12.825 1.573-8.513-4.035-16.71-12.566-18.284zM702.965 269.882l-121.702 25.89c-8.475 1.796-13.898 10.124-12.084 18.618 1.573 7.365 8.086 12.418 15.342 12.418 1.074 0 2.164-0.11 3.256-0.352l121.701-25.872c8.476-1.795 13.918-10.142 12.104-18.618s-10.142-13.843-18.617-12.084zM702.965 353.42l-121.702 25.855c-8.475 1.795-13.898 10.142-12.084 18.617 1.573 7.384 8.086 12.418 15.342 12.418 1.074 0 2.164-0.092 3.256-0.333l121.701-25.873c8.476-1.795 13.918-10.123 12.104-18.617-1.813-8.458-10.142-13.862-18.617-12.067zM702.965 436.923l-121.702 25.89c-8.475 1.796-13.898 10.124-12.084 18.618 1.573 7.366 8.086 12.418 15.342 12.418 1.074 0 2.164-0.11 3.256-0.333l121.701-25.89c8.476-1.796 13.918-10.124 12.104-18.619-1.813-8.476-10.142-13.879-18.617-12.084zM702.965 520.463l-121.702 25.871c-8.475 1.797-13.898 10.125-12.084 18.6 1.573 7.385 8.086 12.436 15.342 12.436 1.074 0 2.164-0.11 3.256-0.351l121.701-25.855c8.476-1.795 13.918-10.141 12.104-18.617-1.813-8.476-10.142-13.843-18.617-12.084zM702.965 603.984l-121.702 25.871c-8.475 1.795-13.898 10.142-12.084 18.618 1.573 7.384 8.086 12.418 15.342 12.418 1.074 0 2.164-0.093 3.256-0.333l121.701-25.891c8.476-1.796 13.918-10.123 12.104-18.616-1.813-8.46-10.142-13.9-18.617-12.067zM702.965 687.504l-121.702 25.872c-8.475 1.795-13.898 10.125-12.084 18.618 1.573 7.366 8.086 12.418 15.342 12.418 1.074 0 2.164-0.11 3.256-0.332l121.701-25.873c8.476-1.795 13.918-10.124 12.104-18.618-1.813-8.495-10.142-13.861-18.617-12.085z" /></svg>