<?xml version="1.0" standalone="no"?><!DOCTYPE svg PUBLIC "-//W3C//DTD SVG 1.1//EN" "http://www.w3.org/Graphics/SVG/1.1/DTD/svg11.dtd"><svg t="1584017291221" class="icon" viewBox="0 0 1024 1024" version="1.1" xmlns="http://www.w3.org/2000/svg" p-id="2652" xmlns:xlink="http://www.w3.org/1999/xlink" width="200" height="200"><defs><style type="text/css"></style></defs><path d="M230.4 742.4c56.32 0 102.4-46.08 102.4-102.4s-46.08-102.4-102.4-102.4-102.4 46.08-102.4 102.4 46.08 102.4 102.4 102.4z m0-153.6c28.16 0 51.2 23.04 51.2 51.2s-23.04 51.2-51.2 51.2-51.2-23.04-51.2-51.2 23.04-51.2 51.2-51.2zM947.2 0H76.8C33.28 0 0 33.28 0 76.8v716.8c0 43.52 33.28 76.8 76.8 76.8h51.2v102.4c0 28.16 23.04 51.2 51.2 51.2h102.4c28.16 0 51.2-23.04 51.2-51.2v-102.4h358.4v102.4c0 28.16 23.04 51.2 51.2 51.2h102.4c28.16 0 51.2-23.04 51.2-51.2v-102.4h51.2c43.52 0 76.8-33.28 76.8-76.8V76.8c0-43.52-33.28-76.8-76.8-76.8zM281.6 947.2c0 15.36-10.24 25.6-25.6 25.6H204.8c-15.36 0-25.6-10.24-25.6-25.6v-76.8h102.4v76.8z m563.2 0c0 15.36-10.24 25.6-25.6 25.6h-51.2c-15.36 0-25.6-10.24-25.6-25.6v-76.8h102.4v76.8z m128-204.8c0 43.52-33.28 76.8-76.8 76.8H128c-43.52 0-76.8-33.28-76.8-76.8V409.6h921.6v332.8z m0-384H657.92l-2.56-2.56-145.92-145.92c-10.24-10.24-25.6-10.24-35.84 0-10.24 10.24-10.24 25.6 0 35.84l112.64 112.64h-81.92c0-5.12-2.56-10.24-7.68-15.36l-145.92-145.92c-10.24-10.24-25.6-10.24-35.84 0-10.24 10.24-10.24 25.6 0 35.84l125.44 125.44H51.2V128c0-43.52 33.28-76.8 76.8-76.8h768c43.52 0 76.8 33.28 76.8 76.8v230.4z m-179.2 384c56.32 0 102.4-46.08 102.4-102.4s-46.08-102.4-102.4-102.4-102.4 46.08-102.4 102.4 46.08 102.4 102.4 102.4z m0-153.6c28.16 0 51.2 23.04 51.2 51.2s-23.04 51.2-51.2 51.2-51.2-23.04-51.2-51.2 23.04-51.2 51.2-51.2z" p-id="2653"></path></svg>