<?xml version="1.0" standalone="no"?><!DOCTYPE svg PUBLIC "-//W3C//DTD SVG 1.1//EN" "http://www.w3.org/Graphics/SVG/1.1/DTD/svg11.dtd"><svg class="icon" width="200px" height="200.00px" viewBox="0 0 1024 1024" version="1.1" xmlns="http://www.w3.org/2000/svg"><path fill="#333333" d="M384 674.91H197.818c-18.618 0-34.909 16.29-34.909 34.908s16.291 34.91 34.91 34.91H384c18.618 0 34.91-16.292 34.91-34.91S402.617 674.91 384 674.91z m81.455-628.365H116.364c-39.564 0-69.819 30.255-69.819 69.819v791.272c0 39.564 30.255 69.819 69.819 69.819h418.909V407.273c0-18.618-16.291-34.91-34.91-34.91s-34.908 16.292-34.908 34.91v500.363H116.364V116.364h349.09v81.454c0 18.618 16.291 34.91 34.91 34.91s34.909-16.292 34.909-34.91v-81.454c0-39.564-30.255-69.819-69.818-69.819zM384 465.455H197.818c-18.618 0-34.909 16.29-34.909 34.909s16.291 34.909 34.91 34.909H384c18.618 0 34.91-16.291 34.91-34.91s-16.292-34.908-34.91-34.908z m523.636 0H581.818v512h325.818c39.564 0 69.819-30.255 69.819-69.819V535.273c0-39.564-30.255-69.818-69.819-69.818z m0 442.181h-256V535.273h256v372.363zM733.091 768h93.09c18.619 0 34.91-16.29 34.91-34.91s-16.291-34.908-34.91-34.908h-93.09c-18.618 0-34.91 16.29-34.91 34.909S714.474 768 733.092 768zM384 256H197.818c-18.618 0-34.909 16.29-34.909 34.91s16.291 34.908 34.91 34.908H384c18.618 0 34.91-16.29 34.91-34.909S402.617 256 384 256z"  /></svg>