<?xml version="1.0" standalone="no"?><!DOCTYPE svg PUBLIC "-//W3C//DTD SVG 1.1//EN" "http://www.w3.org/Graphics/SVG/1.1/DTD/svg11.dtd"><svg class="icon" width="200px" height="200.00px" viewBox="0 0 1024 1024" version="1.1" xmlns="http://www.w3.org/2000/svg"><path fill="#333333" d="M950.609503 478.590076h0.004093C926.461523 302.815747 848.597131 180.043562 761.25897 180.043562c-3.458775 0-6.960529 0.197498-10.396791 0.584308-32.895201 3.714602-61.314461 28.869514-87.021959 63.034639H358.472348c-25.713638-34.165124-54.123688-59.31799-87.019913-63.034639a93.145423 93.145423 0 0 0-10.400884-0.584308c-87.334068 0-165.198459 122.772184-189.351556 298.546514-11.765975 85.635379-5.748934 170.2188 16.945951 238.152005 24.381293 72.971965 64.790632 117.001761 113.783463 123.967406 4.483104 0.639566 9.063423 0.962931 13.602809 0.962931 67.774593 0 140.352585-76.917834 180.610474-190.853769h229.026161C665.926742 764.755608 738.500641 841.672418 806.27114 841.672418c4.541433 0 9.120728-0.323365 13.608949-0.962931 48.993854-6.964622 89.403193-50.994418 113.778347-123.967406 22.700001-67.934229 28.718065-152.516626 16.951067-238.152005zM813.472146 794.051841h0.002046c-24.689309 3.501754-51.759851-11.31879-77.920673-42.284036-25.731034-30.461779-48.02376-73.656557-64.461128-124.913964-3.105734-9.692756-9.948583-14.205537-19.97596-14.205537H371.196137c-10.020214 0-16.864086 4.51278-19.97596 14.205537-16.437367 51.261501-38.726 94.457302-64.452941 124.913964-26.15673 30.965246-53.244668 45.780673-77.924767 42.277896-61.917188-8.804527-114.107851-142.806473-91.276866-308.934095 10.400884-75.705216 32.125675-143.80215 61.168128-191.746092 25.868157-42.697451 55.102992-66.210981 82.321913-66.210981 1.76111 0 3.538593 0.099261 5.285377 0.299829 21.914102 2.472308 44.438095 19.445888 63.429634 47.793516 4.311189 6.433526 8.324596 6.585999 15.97995 6.585999H676.562986c7.656377 0 11.666714-0.152473 15.984043-6.585999 18.989493-28.345582 41.513486-45.313022 63.423495-47.793516a46.845934 46.845934 0 0 1 5.288446-0.299829c27.218922 0 56.450686 23.5166 82.319868 66.210981 29.042453 47.947012 50.770314 116.043946 61.168128 191.746092 22.835078 166.125575-29.362748 300.131615-91.27482 308.940235z m-429.553243-359.535563h-50.895157v-50.894134c0-20.937868-4.878101-38.171368-25.446555-38.171368-20.577664 0-25.447579 17.232476-25.447579 38.171368v50.894134h-50.894134c-20.576641 0-40.054251 3.53143-40.054251 24.462135 0 20.934798 19.47761 26.433022 40.054251 26.433022h50.894134v50.895157c0 20.936845 2.842745 39.014572 23.420409 39.014572 20.571525 0 27.473725-18.077727 27.473725-39.014572v-50.895157h50.895157c20.577664 0 35.992749-5.498224 35.992749-26.433022 0-20.930705-15.414061-24.462135-35.992749-24.462135z m316.466652-20.3597c11.751648 0 23.431665-4.926196 31.743981-13.382799 8.31027-8.456602 13.150508-20.340257 13.150508-32.298613s-4.840238-23.840988-13.150508-32.299637c-8.31334-8.455579-19.992333-13.380752-31.743981-13.380752-11.754718 0-23.433712 4.925173-31.743982 13.380752-8.312316 8.458649-13.151531 20.341281-13.151531 32.299637 0 11.95631 4.839215 23.842011 13.151531 32.298613 8.311293 8.456602 19.989263 13.382798 31.743982 13.382799z m0 83.82208c-11.754718 0-23.433712 4.920056-31.743982 13.380752-8.312316 8.450463-13.151531 20.338211-13.151531 32.292474 0 11.95631 4.839215 23.844058 13.151531 32.298614 8.31027 8.457626 19.989263 13.381775 31.743982 13.381775 11.751648 0 23.431665-4.924149 31.743981-13.381775 8.31027-8.454556 13.150508-20.341281 13.150508-32.298614 0-11.95631-4.840238-23.844058-13.150508-32.292474-8.31334-8.460696-19.99131-13.380752-31.743981-13.380752z m-56.957223-74.260307c-8.311293-8.456602-19.99438-13.377682-31.746029-13.377682-11.753695 0-23.437805 4.920056-31.747051 13.377682-8.31334 8.457626-13.148461 20.346397-13.148461 32.301683 0 11.958356 4.833075 23.844058 13.148461 32.295544 8.31027 8.452509 19.993357 13.373589 31.747051 13.373589 11.751648 0 23.435759-4.920056 31.746029-13.373589 8.312316-8.454556 13.148461-20.338211 13.148461-32.295544-0.001023-11.955286-4.835122-23.844058-13.148461-32.301683z m141.529387-13.376659c-11.751648 0-23.435759 4.920056-31.746029 13.377682-8.31334 8.457626-13.149485 20.346397-13.149484 32.301684 0 11.958356 4.835122 23.844058 13.149484 32.295543 8.311293 8.452509 19.99438 13.373589 31.746029 13.373589 11.752672 0 23.436782-4.920056 31.748074-13.373589 8.309246-8.454556 13.146415-20.338211 13.146415-32.295543 0-11.955286-4.838192-23.844058-13.146415-32.301684-8.312316-8.457626-19.995403-13.377682-31.748074-13.377682z" /></svg>