<?xml version="1.0" standalone="no"?><!DOCTYPE svg PUBLIC "-//W3C//DTD SVG 1.1//EN" "http://www.w3.org/Graphics/SVG/1.1/DTD/svg11.dtd"><svg class="icon" width="200px" height="200.00px" viewBox="0 0 1024 1024" version="1.1" xmlns="http://www.w3.org/2000/svg"><path fill="#333333" d="M942.683 501.26L831 294.071C801.866 220.462 730.16 168.22 646.34 168.22H374.576c-89.972 0-166.048 60.15-190.392 142.34L81.371 501.26c-18.194 33.775-22.166 72.594-11.155 109.344 10.992 36.732 35.662 66.987 69.42 85.2 13.786 7.42 28.75 12.3 44.096 14.91 23.78 83.079 100.24 144.118 190.845 144.118H646.34c90.389 0 166.718-60.73 190.698-143.483 16.49-2.431 32.615-7.581 47.382-15.545 33.774-18.213 58.426-48.468 69.418-85.2 11.01-36.75 7.038-75.568-11.156-109.345zM161.765 654.754c-22.802-12.298-39.453-32.724-46.872-57.54-7.437-24.794-4.753-51.007 7.528-73.826l53.51-99.24v232.022c0 1.595 0.2 3.12 0.236 4.698-4.934-1.67-9.777-3.63-14.402-6.114z m636.602 1.416c0 83.822-68.205 152.008-152.026 152.008H374.576c-83.822 0-152.008-68.186-152.008-152.008V366.883c0-83.84 68.186-152.026 152.008-152.026H646.34c83.821 0 152.026 68.186 152.026 152.026V656.17z m110.795-58.955c-7.42 24.815-24.071 45.241-46.874 57.54-5.604 3.009-11.536 5.332-17.576 7.164 0.054-1.94 0.29-3.81 0.29-5.75V418.328l56.632 105.062c12.28 22.82 14.964 49.032 7.528 73.827zM314.68 401.965c-25.832 0-46.765 20.933-46.765 46.746 0 25.83 20.933 46.763 46.764 46.763 25.813 0 46.746-20.933 46.746-46.763 0-25.813-20.933-46.746-46.746-46.746zM706.255 401.965c-25.83 0-46.763 20.933-46.763 46.746 0 25.83 20.932 46.763 46.763 46.763 25.812 0 46.744-20.933 46.744-46.763 0-25.813-20.932-46.746-46.744-46.746zM615.668 692.774c-42.739 0-77.51-34.754-77.51-77.49 0-2.904-0.6-5.642-1.561-8.2 15.746-9.106 26.466-25.902 26.466-45.404 0-29.04-23.545-52.585-52.605-52.585-29.04 0-52.603 23.545-52.603 52.585 0 19.502 10.72 36.298 26.466 45.404-0.962 2.558-1.561 5.296-1.561 8.2 0 42.736-34.772 77.49-77.491 77.49-12.88 0-23.328 10.45-23.328 23.329 0 12.86 10.448 23.308 23.328 23.308 44.35 0 83.24-23.454 105.19-58.554 21.967 35.1 60.839 58.554 105.209 58.554 12.878 0 23.308-10.449 23.308-23.308 0-12.88-10.431-23.329-23.308-23.329z" /></svg>