<?xml version="1.0" standalone="no"?><!DOCTYPE svg PUBLIC "-//W3C//DTD SVG 1.1//EN" "http://www.w3.org/Graphics/SVG/1.1/DTD/svg11.dtd"><svg class="icon" width="200px" height="200.00px" viewBox="0 0 1024 1024" version="1.1" xmlns="http://www.w3.org/2000/svg"><path fill="#333333" d="M965.489778 371.143111a22.215111 22.215111 0 0 0-13.027556-10.837333L583.594667 230.257778h-115.000889V100.238222h86.812444v69.347556h43.377778v-91.022222c0-12.999111-8.675556-21.674667-21.703111-21.674667h-130.161778c-13.027556 0-21.703111 8.675556-21.703111 21.674667v158.208L71.537778 360.305778a22.215111 22.215111 0 0 0-13.027556 10.808889c-2.161778 4.352-2.161778 10.865778 0 17.351111l43.406222 110.535111c2.161778 8.675556 10.837333 12.999111 19.512889 12.999111h108.487111v433.436444c0 12.999111 8.704 21.674667 21.703112 21.674667h520.760888c12.999111 0 21.703111-8.675556 21.703112-21.674667V512h108.487111c8.675556 0 17.351111-6.513778 19.512889-12.999111l43.406222-110.535111c2.161778-4.323556 2.161778-10.808889 0-17.351111zM273.322667 923.761778v-43.349334h477.354666v43.349334H273.322667z m477.354666-86.670222H273.322667V468.650667h477.354666V837.12z m136.704-368.440889h-93.297777v-21.674667c0-12.999111-8.704-21.674667-21.703112-21.674667H251.619556c-12.999111 0-21.703111 8.675556-21.703112 21.674667v21.674667h-93.297777L106.24 392.817778l342.840889-119.210667h123.676444l342.812445 121.372445-28.188445 73.671111z"  /></svg>