<?xml version="1.0" standalone="no"?><!DOCTYPE svg PUBLIC "-//W3C//DTD SVG 1.1//EN" "http://www.w3.org/Graphics/SVG/1.1/DTD/svg11.dtd"><svg class="icon" width="200px" height="200.00px" viewBox="0 0 1024 1024" version="1.1" xmlns="http://www.w3.org/2000/svg"><path fill="#333333" d="M809.996 409.179c-36.857 0-72.291 9.228-103.917 26.87-28.295-47.66-31.694-61.768-38.228-98.55-10.243-57.682-7.551-112.138 3.104-159.884 1.7-7.617 3.371-14.072 4.861-19.263l2.333-0.479-0.968-4.094c0.97-3.115 1.825-5.57 2.51-7.327l10.867-27.902 116.622 0c17.529 0 31.692-14.095 31.692-31.478 0-17.505-14.188-31.476-31.692-31.476L429.898 55.596c-17.527 0-31.69 14.091-31.69 31.476 0 17.504 14.189 31.478 31.69 31.478l148.864 0c-32.767 13.602-70.031 35.028-107.159 66.508-19.987 16.944-38.547 35.973-55.389 57.194-38.22 48.152-64.568 91.963-81.111 130.724-5.287 12.391-9.095 23.065-11.76 32.014-13.12-1.861-26.425-3.156-40.059-3.156C126.831 401.834 0 528.664 0 685.118 0 841.57 126.829 968.402 283.284 968.402c156.456 0 283.286-126.831 283.286-283.284 0-118.951-73.401-220.61-177.308-262.592 1.89-6.447 4.845-14.961 9.558-26.004 14.335-33.59 37.789-72.587 72.538-116.37 14.144-17.817 29.688-33.756 46.416-47.937 28.141-23.858 58.25-41.702 88.273-54.375-9.786 52.511-11.358 110.868-0.429 172.43 7.772 43.767 13.02 68.42 67.06 140.283 3.16 4.33 7.362 7.852 12.241 10.188 9.996 5.94 22.996 5.674 32.908-1.701 26.79-19.928 58.659-30.46 92.168-30.46 85.249 0 154.606 69.356 154.606 154.606 0 85.253-69.357 154.609-154.606 154.609-85.253 0-154.609-69.356-154.609-154.609 0-26.397 6.759-52.442 19.547-75.313 8.004-14.317 2.887-32.411-11.43-40.416-14.321-8.003-32.413-2.888-40.416 11.43-17.729 31.709-27.101 67.775-27.101 104.3 0 118.006 96.002 214.008 214.008 214.008 118.002 0 214.005-96.002 214.005-214.008C1024.001 505.183 927.998 409.179 809.996 409.179zM495.747 685.119c0 117.34-95.122 212.464-212.463 212.464-117.34 0-212.463-95.124-212.463-212.464 0-117.341 95.124-212.463 212.463-212.463C400.625 472.656 495.747 567.778 495.747 685.119zM288.769 546.979c-1.315 0-2.605 0.092-3.871 0.261l-0.001-0.005c-0.014 0.003-0.027 0.007-0.041 0.011-2.224 0.301-4.357 0.854-6.369 1.628-27.826 7.747-49.411 23.025-64.96 43.493-14.022 18.456-20.666 36.861-22.848 50.378l0.158 0.025c-0.004 0.04-0.01 0.077-0.014 0.117-1.465 14.782 8.475 27.868 22.202 29.229 12.81 1.271 24.387-8.12 27.068-21.394l0.011 0.002c0.983-6.096 4.958-17.106 13.287-28.07 9.847-12.959 23.566-22.236 42.688-26.617l-0.01-0.042c11.306-2.955 19.596-12.595 19.596-24.039C315.664 558.161 303.623 546.979 288.769 546.979z" /></svg>