<?xml version="1.0" standalone="no"?><!DOCTYPE svg PUBLIC "-//W3C//DTD SVG 1.1//EN" "http://www.w3.org/Graphics/SVG/1.1/DTD/svg11.dtd"><svg class="icon" width="200px" height="200.00px" viewBox="0 0 1024 1024" version="1.1" xmlns="http://www.w3.org/2000/svg"><path fill="#333333" d="M723.359375 901.36653646H301.22070311a134.578125 134.578125 0 0 1-134.36718748-134.41992188V440.7845052h690.76757812v326.16210938a134.47265625 134.47265625 0 0 1-134.26171875 134.41992188zM205.296875 479.12239583v287.82421875a95.9765625 95.9765625 0 0 0 95.92382813 95.9765625h422.13867187a95.9765625 95.9765625 0 0 0 95.92382813-95.9765625V479.12239583H205.296875z"  /><path fill="#333333" d="M857.67382813 479.12239583h-690.8203125A76.83398438 76.83398438 0 0 1 90.125 402.3938802v-38.39062499c0-42.29296875 34.43554688-76.72851563 76.72851563-76.72851563h690.8203125c42.34570313 0 76.78125001 34.43554688 76.78125 76.72851563v38.39062499c0 42.29296875-34.48828125 76.72851563-76.78125 76.72851563z m-690.8203125-153.50976563a38.49609375 38.49609375 0 0 0-38.33789063 38.39062501v38.390625a38.49609375 38.49609375 0 0 0 38.33789063 38.44335937h690.8203125a38.49609375 38.49609375 0 0 0 38.44335937-38.44335938v-38.390625a38.44335938 38.44335938 0 0 0-38.44335937-38.390625h-690.8203125z"  /><path fill="#333333" d="M512.26367188 862.92317708a19.14257813 19.14257813 0 0 1-19.19531251-19.1953125V325.6126302a19.1953125 19.1953125 0 0 1 38.39062501 0v518.11523438a19.14257813 19.14257813 0 0 1-19.1953125 19.1953125z"  /><path fill="#333333" d="M533.7265625 325.6126302H302.80273437l-5.64257812-5.64257812c-32.53710938-32.80078125-49.67578125-76.62304688-46.93359375-120.18164063 1.95117187-30.90234375 13.65820313-56.953125 32.16796875-71.40234374C296.58007812 117.31184895 315.51171875 111.45833333 337.23828125 111.45833333c43.29492188 0 92.28515625 22.9921875 130.9921875 61.48828125a220.37695313 220.37695313 0 0 1 63.12304688 131.4140625l2.37304687 21.25195314z m-214.62890625-38.33789062h170.38476563a183.35742188 183.35742188 0 0 0-48.25195313-87.16992188c-31.79882813-31.48242187-70.6640625-50.30859375-103.9921875-50.30859374-13.078125 0-23.8359375 3.05859375-31.16601563 8.80664062-9.43945313 7.3828125-16.2421875 24.52148438-17.45507812 43.61132813-1.95117187 30.1640625 9.17578125 60.75 30.48046875 85.06054687z"  /><path fill="#333333" d="M721.77734375 325.6126302H490.85351562l2.32031251-21.25195312c3.26953125-28.8984375 15.66210938-84.375 63.12304687-131.4140625C595.05664063 134.45052083 644.046875 111.45833333 687.34179689 111.45833333c21.67382813 0 40.65820313 5.85351563 54.84374998 16.875 18.40429689 14.50195313 30.1640625 40.55273438 32.00976563 71.40234375 2.84765625 43.55859375-14.29101563 87.38085938-46.88085938 120.18164063l-5.53710937 5.69531249z m-186.73242188-38.33789062h170.43750001c21.35742188-24.31054688 32.43164063-54.89648438 30.48046874-85.06054688-1.10742188-19.08984375-8.06835938-36.22851563-17.45507812-43.61132812-7.3828125-5.74804688-18.08789063-8.80664063-31.16601563-8.80664062-33.43359375 0-72.29882813 18.82617188-104.04492187 50.30859375a184.25390625 184.25390625 0 0 0-48.25195313 87.16992187z"  /></svg>