<?xml version="1.0" standalone="no"?><!DOCTYPE svg PUBLIC "-//W3C//DTD SVG 1.1//EN" "http://www.w3.org/Graphics/SVG/1.1/DTD/svg11.dtd"><svg class="icon" width="200px" height="200.00px" viewBox="0 0 1024 1024" version="1.1" xmlns="http://www.w3.org/2000/svg"><path fill="#333333" d="M757.2224 869.74976l-3.70688-2.68288-12.15488-36.2752-33.23392-111.52896 2.85696-3.82464 2.32448 0.02048a125.7472 125.7472 0 0 0 90.71104-38.90176c25.48224-25.66656 38.44608-57.0368 38.44608-93.14304 0-21.10976-4.80256-41.088-14.26432-59.37664a137.43104 137.43104 0 0 0-28.76928-37.72928l-8.20224-7.58784-2.0224 10.98752a274.00192 274.00192 0 0 1-56.72448 122.88 279.4496 279.4496 0 0 1-111.7952 83.90144l-5.19168 2.14016 40.50944 131.4304 10.4704 34.54976-3.328 4.48512h-32.41472l-3.72736-2.69312-12.10368-35.59936-53.95456-153.98912 2.69824-4.71552a236.81536 236.81536 0 0 0 135.49568-82.11968c36.43904-43.69408 54.9376-94.78656 54.9376-151.808 0-26.03008-4.15232-51.57888-12.35456-75.9296-8.1664-24.32-19.70176-46.5152-34.28352-65.95072a262.94272 262.94272 0 0 0-51.28704-51.67616c-19.47136-14.80704-41.66656-26.31168-65.95072-34.24256a243.35872 243.35872 0 0 0-75.91424-12.0064h-1.24928a236.63104 236.63104 0 0 0-118.68672 31.96416A236.5952 236.5952 0 0 0 307.0976 317.59872c-21.1968 36.67968-31.9488 77.2352-31.9488 120.51456a231.54176 231.54176 0 0 0 54.96832 151.91552c35.82976 42.99264 81.16736 70.5792 134.7584 82.00192l2.74944 4.75648-53.29408 153.94304-12.11392 35.63008-3.72224 2.68288H365.4656l-3.34336-4.57728 11.12064-34.46272 40.49408-131.44064-5.2224-2.11968a276.21376 276.21376 0 0 1-112.0512-83.8912 275.38432 275.38432 0 0 1-56.43776-122.88l-2.01216-10.9568-8.20224 7.54688a135.2704 135.2704 0 0 0-28.78464 37.74976c-9.45664 18.2784-14.2592 38.2464-14.2592 59.32544-0.41472 34.83648 13.64992 68.864 38.59456 93.29152 23.36256 24.576 56.41728 38.75328 90.53696 38.75328l2.34496-0.02048 2.85696 3.84512-33.29024 111.49824-12.09344 36.31616-3.74272 2.68288h-33.01888l-3.33824-4.53632 36.81792-118.21568-5.89824-1.82272c-33.96608-10.48064-62.42304-30.21312-84.58752-58.65984-23.67488-30.40256-35.68128-65.55648-35.68128-104.448a166.17984 166.17984 0 0 1 24.2432-87.29088 170.07104 170.07104 0 0 1 61.68576-60.34432l3.05152-1.73568 0.05632-3.51744a259.04128 259.04128 0 0 1 5.9904-51.2512 278.92736 278.92736 0 0 1 16.80384-51.74784 278.21056 278.21056 0 0 1 26.28096-46.7456 297.99424 297.99424 0 0 1 33.95072-40.69376 273.90976 273.90976 0 0 1 88.36096-59.14624 289.44896 289.44896 0 0 1 52.06528-16.09728 271.1552 271.1552 0 0 1 55.33184-5.71392l1.82272-0.01024a274.688 274.688 0 0 1 137.50784 36.95616c83.7632 48.1024 137.55904 137.92768 140.41088 234.43968l0.10752 3.46624 3.01568 1.70496a165.80096 165.80096 0 0 1 33.08544 24.64768 176.57856 176.57856 0 0 1 28.32384 35.06688 166.66624 166.66624 0 0 1 17.95072 40.98048l0.23552 0.86016a169.57952 169.57952 0 0 1 6.41536 46.17216c-0.04608 39.02976-12.0832 74.17344-35.77344 104.53504a167.31136 167.31136 0 0 1-84.49024 58.624l-5.91872 1.80224 36.82304 118.28224-3.328 4.49536h-33.05472z"  /><path fill="#333333" d="M514.57024 578.47808c-35.23072 0-65.67936-12.60032-90.48576-37.46304-24.30976-24.25856-36.9152-53.97504-37.504-88.34048l3.72736-3.72224h33.09056l3.75296 3.77344a85.5552 85.5552 0 0 0 3.28704 20.8896c8.00768 29.47072 31.33952 52.9152 60.86656 61.09696 7.34208 2.17088 15.11424 3.28704 22.99392 3.28704l1.4848 0.01024c22.79424 0 44.928-9.43104 60.71808-25.8816 16.64512-16.64 25.07264-36.13696 25.6512-59.45344l3.73248-3.72224h33.20832l3.52768 3.23072c-0.47616 34.58048-13.07136 64.44544-37.4528 88.77568-24.9088 24.89344-55.38304 37.51936-90.5984 37.51936z"  /></svg>