<?xml version="1.0" standalone="no"?><!DOCTYPE svg PUBLIC "-//W3C//DTD SVG 1.1//EN" "http://www.w3.org/Graphics/SVG/1.1/DTD/svg11.dtd"><svg t="1584601436035" class="icon" viewBox="0 0 1024 1024" version="1.1" xmlns="http://www.w3.org/2000/svg" p-id="2582" xmlns:xlink="http://www.w3.org/1999/xlink" width="200" height="200"><defs><style type="text/css"></style></defs><path d="M633.598 476.106l-52.845 0 66.88-71.842c7.2-7.792 7.2-20.062 0-27.967l-12.935-14.107c-7.06-7.75-20.875-7.75-27.925-0.11l-84.375 90.582-84.225-90.507c-7.128-7.827-20.867-7.68-27.92 0l-12.787 14c-7.202 7.825-7.202 20.062 0 27.925l67.02 72.025-52.982 0c-11.247 0-20.285 9.147-20.285 20.32l0 20.135c0 11.21 9.037 20.32 20.285 20.32l80.617 0 0 40.47-80.622 0c-11.242 0-20.285 9.15-20.285 20.325l0 20.205c0 11.175 9.042 20.285 20.285 20.285l80.622 0 0 60.445c0 11.21 9.115 20.33 20.282 20.33l20.29 0c11.165 0 20.285-9.12 20.285-20.33l0-60.445 80.62 0c11.24 0 20.28-9.11 20.28-20.285l0-20.205c0-11.17-9.04-20.325-20.28-20.325l-80.62 0 0-40.47 80.62 0c11.235 0 20.28-9.11 20.28-20.32l0-20.135C653.878 485.251 644.838 476.106 633.598 476.106zM933.343 441.486c27.165-18.082 29.165-33.825 29.165-57.582L962.508 241.237c0-45.855-37.47-83.277-83.315-83.277L165.91 157.96c-45.847 0-83.317 37.42-83.317 83.277l0 142.67c0 23.752 2.255 43.09 30.717 58.402 19.38 9.085 64.372 35.387 64.372 84.27 0 55.585-33.057 73.89-61.692 83.575l-2.51 1.26c-27.855 17.34-30.887 46.2-30.887 57.795l0 142.635c0 45.935 37.47 83.355 83.317 83.355l713.278 0c45.85 0 83.32-37.42 83.32-83.355L962.508 669.208c0-30.845-8.57-42.13-30.28-58.23-49.065-25.26-64.81-45.805-64.81-84.4C867.418 488.034 882.038 469.044 933.343 441.486zM802.453 526.579c0 63.38 38.91 121.115 97.495 145.63l0 122.305c0 20.035-16.305 36.345-36.34 36.345L181.665 830.859c-20.21 0-36.512-16.31-36.512-36.345L145.153 672.208c58.585-24.515 97.495-82.25 97.495-145.63 0-63.367-38.91-121.115-97.495-145.625L145.153 258.732c0-20.117 16.302-36.427 36.512-36.427l681.943 0c20.035 0 36.34 16.31 36.34 36.427l0 122.222C841.363 405.464 802.453 463.211 802.453 526.579z" p-id="2583"></path></svg>