<?xml version="1.0" standalone="no"?><!DOCTYPE svg PUBLIC "-//W3C//DTD SVG 1.1//EN" "http://www.w3.org/Graphics/SVG/1.1/DTD/svg11.dtd"><svg class="icon" width="200px" height="200.00px" viewBox="0 0 1024 1024" version="1.1" xmlns="http://www.w3.org/2000/svg"><path fill="#333333" d="M938.682869 333.793272a123.546827 123.546827 0 0 0-5.40101-6.087648 25.745361 25.745361 0 0 0-8.016581-7.249102c-0.944512-0.718361-1.837858-1.438769-2.728134-2.045589l-0.388857 0.497327c-3.060709-1.272993-6.347568-1.937119-9.853415-1.937118-14.19428 0-25.66145 11.398608-25.661449 25.508976 0 8.797363 4.508687 16.600073 11.356652 21.192672 0.500397 0.553609 1.000793 1.106194 1.503237 1.714038 8.628518 10.514471 8.628518 18.261922-7.960299 32.426527-7.236821 6.197142-15.141862 11.675924-23.603581 16.544814-16.477276 9.406231-34.401508 15.935947-52.326763 19.974937-2.003634 0.442068-3.895727 0.830925-5.732561 1.217735-3.061732-16.821107-7.293103-33.531698-12.858866-50.076513-13.080923-39.064714-33.009811-74.200956-60.564377-104.19099-8.518001-9.296737-17.423835-17.762549-26.610054-25.397437a737.719858 737.719858 0 0 1 8.350178-13.16995c9.852392-15.105023 20.540825-30.211069 31.618115-44.209898 16.923438-21.303188 33.177634-37.95852 47.594995-47.972595 13.750165-9.628288 22.210861-11.288091 27.054169-8.244778 63.73765 39.618323 75.816756 53.339836 68.413136 77.078493-4.843308 15.659655-10.855232 25.286919-22.044062 35.633568-7.347339 6.807033-17.201777 14.165628-32.787754 24.733311-8.572236 5.811356-33.288151 21.913079-42.028209 27.722389l0.11154 0.110517c-7.068999 4.372587-11.80179 12.117992-11.80179 21.026895 0 13.610996 11.132548 24.679076 24.827455 24.679076 7.737218 0 14.640442-3.542686 19.204387-9.020444 11.246135-6.861268 30.617321-18.037818 38.020942-23.017227 17.58961-11.842723 29.16832-20.584827 38.798655-29.493731 17.757432-16.434298 28.502148-33.585933 35.904744-57.599859 17.144472-55.222719-7.125281-82.888825-89.900519-134.347824-25.550932-15.881712-54.218856-10.236132-82.775239 9.683546-9.686616 6.750751-19.427468 15.161305-29.27986 25.064862-5.566786-18.093077-22.210861-37.791721-53.885258-54.834886-1.446955-0.775666-2.950192-1.549286-4.397146-2.323928-24.604374-12.616342-47.984874-2.989077-64.62895 19.36607-10.409071 14.055111-18.926048 33.42118-26.27441 57.323566-4.620227 14.94027-8.516977 30.820959-11.689227 46.645367-0.054235 0.165776-0.054235 0.331551-0.11154 0.497327-28.612665-2.489704-57.001225 0.221034-84.22117 6.861268-22.045085 2.65548-40.636512 20.307512-45.702901 25.728988-8.573259 9.129938-17.032932 18.59245-25.049513 27.831882-2.839675 3.264347-5.510504 6.474458-8.128121 9.574052-3.339048 3.982708-6.399757 7.855922-9.239432 11.509125-27.332509 35.190477-62.179155 90.246397-105.432261 165.001985a4590.172983 4590.172983 0 0 0-22.09932 38.566364c-14.975063 26.448372-112.779599 203.237821-126.028345 224.263693-23.547299 37.514405-31.841196 53.673433-46.425356 86.817298-0.557702 1.215688-0.557702 1.215688-1.058098 2.379187-4.119831 9.296737-7.236821 15.824407-11.411911 23.459294a3527.43061 3527.43061 0 0 1-8.293897 14.995529c-3.507894 6.418176-6.235005 11.675924-8.683776 16.87739-10.799974 22.852474-14.807241 41.333384-8.016581 59.204403 9.017374 23.738657 32.954553 34.30634 68.191079 34.30634 116.843148 0 484.797451-195.435111 639.32692-314.511113a114.102734 114.102734 0 0 0 7.347338-6.197143c11.968589-10.956539 19.482727-22.132066 23.434736-30.488384l1.726317-5.090949c1.058099-4.702092 2.561335-12.836353 4.007267-23.849174 3.50687-26.725688 4.898567-54.612829 3.339048-82.832544 22.544459-3.762697 49.765427-12.228509 77.265758-27.88714 11.132548-6.362918 21.654182-13.667278 31.395034-22.022573 39.022759-33.199123 39.022759-71.710228 14.308891-101.920274zM627.675556 210.621998c2.89391-14.331403 6.401804-28.662807 10.521634-41.886992 5.788843-18.924002 12.301164-33.69645 18.591427-42.218544 2.004657-2.656503 2.393513-3.65218 2.227738-4.037966 0.778736 0.38681 1.557472 0.828878 2.337231 1.217734 24.214495 13.002129 29.670763 21.967314 29.614482 24.457018v-0.387833s6.513344 5.257747 17.813714 5.643534c11.299347 0.387833 16.922415-4.481058 16.922415-4.481058-5.120624 5.810333-10.243295 11.952216-15.420202 18.425651-12.19167 15.382339-23.769356 31.706119-34.401507 48.084135-2.839675 4.371564-5.456269 8.465812-7.7935 12.283768-13.361309-7.082302-26.88737-12.615319-40.413432-16.876366v-0.223081zM762.387677 561.983391c-0.947582 7.137561-1.837858 12.617365-2.561335 16.323781-1.892093 3.210112-5.510504 7.912204-10.742669 12.727882a60.743456 60.743456 0 0 1-4.064572 3.375887C702.657294 627.110691 642.149199 666.452721 575.070454 705.793728l-0.167822-0.276293-74.537623-86.456071a25.327852 25.327852 0 0 0-23.491018-15.714913c-14.028505 0-25.384134 11.288091-25.384133 25.231661a25.066909 25.066909 0 0 0 4.78805 14.773472l-0.057306 0.056281 75.207889 87.671759C377.010563 818.228473 202.553229 898.573359 136.588865 898.573359c-16.588817 0-21.042245-1.937119-20.986987-1.825578-0.556679-1.438769 1.058099-8.743128 6.457062-20.25123 1.948375-4.151553 4.285606-8.578376 7.347339-14.165627 0.946558-1.771343 6.79066-12.283768 8.40646-15.216564 4.897543-9.019421 8.573259-16.655332 13.137205-27.057239 0.556679-1.272993 0.556679-1.272993 1.113357-2.490727 13.637602-31.041994 20.818141-45.151339 42.974767-80.34284 7.40362-11.841699 38.353516-66.952878 68.023256-120.127961l76.541257 93.236498c4.619204 6.14086 11.912307 10.070356 20.206205 10.070356 13.916964 0 25.216311-11.232832 25.216311-25.065885 0-6.418176-2.393513-12.228509-6.401804-16.655332h0.057306l-89.289606-108.949364c15.754822-28.274974 28.389584-50.960649 32.841989-58.818617 7.571443-13.334703 14.808264-26.006304 21.877263-38.179554 27.166733-46.976918 50.878784-85.930091 71.197552-116.528994l3.118014 5.089925L545.293267 500.399801c3.563152 9.626241 12.915148 16.487509 23.825638 16.487509 14.027481 0 25.38311-11.287067 25.383111-25.231661 0-3.873214-0.8913-7.525394-2.449795-10.790763l0.224104-0.164753-13.08297-21.412682-131.989103-148.624992c1.000793-1.326205 29.836539-34.085306 37.963636-42.771129 2.615571-2.822278 4.897543-5.201465 6.791683-7.194866 3.394307-1.106194 8.070816-2.489704 13.916965-3.928473 45.589314-11.066033 94.909603-8.686846 140.88982 16.434298 18.647709 10.181897 36.182061 23.958668 52.492538 41.71917 22.600741 24.623817 39.021735 53.618175 49.988508 86.319971 17.647939 52.567239 19.929912 109.228727 13.140275 160.741961z" /></svg>