<?xml version="1.0" standalone="no"?><!DOCTYPE svg PUBLIC "-//W3C//DTD SVG 1.1//EN" "http://www.w3.org/Graphics/SVG/1.1/DTD/svg11.dtd"><svg class="icon" width="200px" height="200.00px" viewBox="0 0 1024 1024" version="1.1" xmlns="http://www.w3.org/2000/svg"><path fill="#333333" d="M912.534326 529.551748c-13.001105-12.932544-27.939329-23.183002-44.475958-30.524201 3.665483-103.742782-36.328393-204.995861-110.2111-278.508131-35.995819-35.808554-77.95649-63.529919-124.754329-82.410942-45.177945-18.2302-92.910063-27.472702-141.867078-27.472701-48.944735 0-96.66969 9.242502-141.866055 27.466562-46.792723 18.887163-88.765673 46.614667-124.743072 82.417081-35.989679 35.801391-63.859423 77.56661-82.833567 124.130112-18.330484 44.968168-27.620058 92.470041-27.620058 141.185556 0 48.713468 9.28855 96.229668 27.620058 141.190673a373.536438 373.536438 0 0 0 24.159236 48.727794l-72.989361 72.626088c-17.951861 17.859763-27.843138 41.615816-27.843139 66.881246 0 25.276686 9.891278 49.033763 27.843139 66.881247 17.915022 17.833157 41.774429 27.663036 67.180052 27.663036 25.39846 0 49.256844-9.830903 67.179028-27.663036l73.020061-72.651671a375.451044 375.451044 0 0 0 49.033763 24.077372c45.183062 18.229177 92.914156 27.470655 141.858892 27.470655 48.957015 0 96.688109-9.254781 141.867078-27.484981 39.750329-16.033162 76.181053-38.565341 108.346637-67.02144 20.366863 10.0591 43.10882 15.370059 66.079997 15.370059 39.674605 0 76.960813-15.384385 105.001449-43.289945 28.02938-27.879977 43.454698-65.00348 43.454698-104.527658 0.001023-39.535435-15.425318-76.658937-43.440371-104.532775zM183.047989 857.407798c-7.541767 7.491625-15.500019 13.099343-26.199708 13.099342-10.701736 0-17.457604-19.655665-24.999371-27.161616-7.544837-7.493671-11.70253-17.477047-11.702529-28.084639 0-10.609639 2.955308-28.935006 10.500145-36.455283l65.500806-65.500807c8.384971 10.302647 19.033495 28.461215 28.469402 37.845957 9.429767 9.394974 26.720571 19.34458 37.031405 27.655873l-78.60015 78.601173z m314.40469-39.301098c-86.11531 0-175.086667-31.293727-235.80454-91.701539-85.681428-85.251639-116.193349-239.380996-78.601173-353.705787l408.748405 417.425018c-32.420387 10.570753-59.96165 27.982308-94.342692 27.982308z m199.255113-85.594447a321.06539 321.06539 0 0 1-50.539046 34.213219L196.147332 320.29791c14.595416-26.483164 43.844577-43.952025 65.500807-65.500806 60.82532-60.516282 136.685056-104.800881 222.704174-104.800881 86.014003 0 173.766602 48.802496 234.585783 109.318777 60.335157 60.018955 94.455255 142.398174 94.314039 227.069599-1.90335-0.070608-3.817955-0.10847-5.733585-0.10847-39.647999 0-76.946486 15.368012-105.013728 43.276642-28.053939 27.913746-43.50484 65.036225-43.50484 104.533798 0.001023 36.650735 13.343913 71.297836 37.70781 98.425684z m180.651406-32.307824c-17.660218 17.566074-40.523949 39.301098-65.500806 39.301098-24.975834 0-60.940954-8.620331-78.601172-26.199708-17.633612-17.539468-19.207457-54.376445-19.207458-79.21925 0-24.828478 9.717316-48.179302 27.364231-65.744353 17.646915-17.566074 41.129746-27.229155 66.105581-27.229155 24.976858 0 48.459688 9.664104 66.133209 27.243481 17.60803 17.527189 27.313066 40.86164 27.313066 65.731051-0.001023 24.855084-5.986341 48.575322-23.606651 66.116836z" /></svg>